<svg width="10" height="6" viewBox="0 0 10 6" fill="none" xmlns="http://www.w3.org/2000/svg">
<path d="M8.75 0.686943C8.80728 0.686998 8.86406 0.69826 8.91699 0.720146C8.97012 0.742152 9.01891 0.775186 9.05957 0.815849C9.10003 0.856423 9.13237 0.904503 9.1543 0.957451C9.17628 1.01056 9.1875 1.06794 9.1875 1.12542C9.18745 1.18271 9.1762 1.23947 9.1543 1.29241C9.13229 1.34554 9.10023 1.39433 9.05957 1.43499L5.30957 5.18499C5.26895 5.22568 5.22009 5.25768 5.16699 5.27972C5.11404 5.30165 5.05731 5.31286 5 5.31292C4.9425 5.31292 4.88514 5.30174 4.83203 5.27972C4.7789 5.25767 4.73009 5.22571 4.68945 5.18499V5.18401L0.94043 1.43499C0.899687 1.39435 0.866782 1.34556 0.844727 1.29241C0.822807 1.23947 0.811578 1.18271 0.811523 1.12542C0.811523 1.06794 0.822721 1.01055 0.844727 0.957451C0.866782 0.904299 0.899687 0.855513 0.94043 0.814873C0.980944 0.774413 1.02914 0.742093 1.08203 0.720146C1.13513 0.69814 1.19252 0.686943 1.25 0.686943C1.30729 0.686998 1.36405 0.698226 1.41699 0.720146C1.47014 0.742202 1.51893 0.775107 1.55957 0.815849L4.99902 4.25628L8.43945 0.815849H8.44043C8.48109 0.775187 8.5289 0.742152 8.58203 0.720146C8.63512 0.698174 8.69254 0.686943 8.75 0.686943Z" fill="#272727" stroke="#272727" stroke-width="0.25"/>
</svg>
